Coordinates
version=1
nRows=12
nColumns=24
inDegrees=yes

Units are S.I. units (second, meters, Newtons, ...)
Angles are in degrees.

endheader
time	pelvis_tilt	pelvis_list	pelvis_rotation	pelvis_tx	pelvis_ty	pelvis_tz	hip_flexion_r	hip_adduction_r	hip_rotation_r	knee_angle_r	ankle_angle_r	subtalar_angle_r	mtp_angle_r	hip_flexion_l	hip_adduction_l	hip_rotation_l	knee_angle_l	ankle_angle_l	subtalar_angle_l	mtp_angle_l	lumbar_extension	lumbar_bending	lumbar_rotation
      4.16000000	     -2.88904033	      1.59497667	      5.04386111	      0.07606543	      0.93995551	     -0.01459512	     25.16427123	     -4.50856557	     -0.85987832	      0.38146811	      2.72110072	      0.00000000	      0.00000000	     -2.65933327	      5.51371703	      6.52049679	    -18.30105930	     24.10209078	      0.00000000	      0.00000000	     -6.96715941	     -1.08005659	      0.58719849
      4.17000000	     -2.95190741	      1.49783368	      5.58481928	      0.07743965	      0.93874286	     -0.01428736	     25.21137569	     -4.47170052	     -0.50009317	     -0.44504036	      2.58577119	      0.00000000	      0.00000000	     -3.24874803	      5.25106009	      6.81174020	    -18.19203665	     24.18720229	      0.00000000	      0.00000000	     -6.80685790	     -0.82847086	      0.34159257
      4.18000000	     -2.99053906	      1.39186147	      6.11582800	      0.07899687	      0.93760230	     -0.01398636	     25.28060939	     -4.40485238	     -0.21673508	     -1.46107090	      2.45844560	      0.00000000	      0.00000000	     -3.89176401	      4.96898022	      7.13820274	    -18.03935460	     24.26406229	      0.00000000	      0.00000000	     -6.64827705	     -0.55355569	      0.11682258
      4.19000000	     -3.01642261	      1.27608695	      6.62084946	      0.08067891	      0.93652270	     -0.01361607	     25.38802246	     -4.30516132	      0.01924030	     -2.63254326	      2.30706916	      0.00000000	      0.00000000	     -4.56422384	      4.65515321	      7.46161060	    -17.86395730	     24.29634002	      0.00000000	      0.00000000	     -6.48727002	     -0.26586048	     -0.10033511
      4.20000000	     -3.01686017	      1.23149948	      7.02482495	      0.08246710	      0.93553842	     -0.01320863	     25.74143038	     -4.20742780	      0.03999938	     -4.38909941	      2.65486239	      0.00000000	      0.00000000	     -5.32057556	      4.41862928	      7.75579322	    -17.59041341	     24.21191463	      0.00000000	      0.00000000	     -6.34792297	     -0.04007121	     -0.19734579
      4.21000000	     -3.09644701	      1.12026117	      7.50336382	      0.08433901	      0.93465344	     -0.01262320	     25.81202066	     -4.08934876	      0.44223192	     -5.40999234	      2.25610240	      0.00000000	      0.00000000	     -5.85633590	      4.07761185	      7.92609870	    -17.54824252	     24.09688348	      0.00000000	      0.00000000	     -6.08953077	      0.22713712	     -0.46075554
      4.22000000	     -3.14638827	      0.94270399	      7.85436875	      0.08628038	      0.93395288	     -0.01194247	     26.05167028	     -3.84425547	      0.72262455	     -6.78411850	      1.79008156	      0.00000000	      0.00000000	     -6.42349275	      3.67473965	      8.13450917	    -17.48658471	     23.83270357	      0.00000000	      0.00000000	     -5.84838699	      0.58756898	     -0.60409048
      4.23000000	     -3.24192094	      0.76536512	      8.08130934	      0.08825904	      0.93336658	     -0.01112819	     26.46955003	     -3.55051189	      0.89422860	     -8.37671598	      1.46734921	      0.00000000	      0.00000000	     -6.89669626	      3.29024591	      8.16866659	    -17.49194766	     23.37650756	      0.00000000	      0.00000000	     -5.54892952	      0.93547676	     -0.59878762
      4.24000000	     -3.33652564	      0.61043221	      8.37006685	      0.09029628	      0.93305409	     -0.01027360	     26.71395662	     -3.30747813	      1.29638668	     -9.67780228	      1.17690239	      0.00000000	      0.00000000	     -7.28574367	      2.90576117	      8.20480021	    -17.62846891	     22.91650697	      0.00000000	      0.00000000	     -5.23293539	      1.25385522	     -0.76383887
      4.25000000	     -3.41524192	      0.38238112	      8.53250690	      0.09226080	      0.93296186	     -0.00928615	     27.11479820	     -2.92767845	      1.67955185	    -11.27890430	      0.92471814	      0.00000000	      0.00000000	     -7.59457052	      2.47174384	      8.23325111	    -17.89392105	     22.16332712	      0.00000000	      0.00000000	     -4.93802817	      1.66741256	     -0.77414027
      4.26000000	     -3.53796932	      0.17707024	      8.59829848	      0.09427265	      0.93305038	     -0.00807755	     27.57491382	     -2.52089944	      2.08698227	    -12.91346842	      0.89527351	      0.00000000	      0.00000000	     -7.76209874	      2.07677243	      8.11770220	    -18.31801681	     21.20910634	      0.00000000	      0.00000000	     -4.58767870	      2.02191934	     -0.74646460
      4.27000000	     -4.27559998	      0.29395112	      8.36927534	      0.09632542	      0.93237500	     -0.00651068	     28.96309600	     -2.34588819	      2.88948253	    -15.17196230	      1.76149299	      0.00000000	      0.00000000	     -7.22386404	      2.16086280	      7.71420324	    -18.91838724	     20.04795097	      0.00000000	      0.00000000	     -3.54744357	      1.89676731	     -0.45417120
